<svg viewBox="0 0 265 105.03891070028357" height="105.03891070028357" width="265" style="width: 265px; height: 105.039px; position: absolute; top: 50%; left: 50%; transform: translate(-50%, -50%) scale(0.473208); z-index: 0; cursor: pointer;"><defs id="SvgjsDefs2112"><linearGradient id="SvgjsLinearGradient2117"><stop id="SvgjsStop2118" stop-color="#ef4136" offset="0"></stop><stop id="SvgjsStop2119" stop-color="#fbb040" offset="1"></stop></linearGradient><linearGradient id="SvgjsLinearGradient2120"><stop id="SvgjsStop2121" stop-color="#ef4136" offset="0"></stop><stop id="SvgjsStop2122" stop-color="#fbb040" offset="1"></stop></linearGradient></defs><g id="SvgjsG2113" featurekey="symbolFeature-0" transform="matrix(1.1909172930691252,0,0,1.1909172930691252,-29.09053904380986,-0.8205421693862512)" fill="url(#SvgjsLinearGradient2117)"><g xmlns="http://www.w3.org/2000/svg"><path d="M43.32,25.731c1.311,0,2.347-0.112,3.117-0.26c0.256-0.049,0.586-0.039,0.694,0.057c0.101,0.087,0.145,0.178,0.145,0.417   c-0.008,2.072-0.028,5.679,0.252,9.822C48.564,51.1,51.065,76.224,51.3,78.572c0.013,0.117,0.008,0.135-0.004,0.177   c-0.014,0.044-0.095,0.147-0.095,0.147l-7.825,9.956c0,0-0.033,0.037-0.054,0.037s-0.053-0.035-0.053-0.035l-7.831-9.958   c0,0-0.081-0.104-0.094-0.147c-0.012-0.042-0.016-0.06-0.003-0.177c0.235-2.349,2.734-27.473,3.77-42.805   c0.281-4.143,0.261-7.75,0.252-9.822c0-0.239,0.044-0.329,0.145-0.417c0.108-0.096,0.438-0.106,0.695-0.057   C40.973,25.62,42.009,25.731,43.32,25.731z"></path></g><g xmlns="http://www.w3.org/2000/svg"><path d="M43.319,13.453c-2.879,0-5.762,0.543-5.762,1.63c0,1.397,0.834,7.599,1.659,7.836c0.252,0.073,1.573,0.574,4.104,0.574   c2.701,0,3.681-0.431,4.146-0.568c0.812-0.241,1.615-6.036,1.615-7.842C49.082,13.996,46.2,13.453,43.319,13.453z"></path></g><g xmlns="http://www.w3.org/2000/svg"><path d="M34.441,15.456c1.167-2.26,1.701-2.253,1.702-2.856c0.001-0.576-1.243-1.359-1.527-1.555   c-5.963-4.1-7.004-10.356-7.004-10.356c-0.657,0.299-3.185,8.506-3.185,9.334c0,4.282,7.358,14.328,7.358,14.328   S33.271,17.718,34.441,15.456z"></path></g><g xmlns="http://www.w3.org/2000/svg"><path d="M52.2,15.456c-1.167-2.26-1.703-2.253-1.703-2.856c-0.001-0.576,1.242-1.359,1.527-1.555   c5.962-4.1,7.003-10.356,7.003-10.356c0.658,0.299,3.186,8.506,3.186,9.334c0,4.282-7.36,14.328-7.36,14.328   S53.37,17.718,52.2,15.456z"></path></g></g><g id="SvgjsG2114" featurekey="nameFeature-0" transform="matrix(1.9488763428057905,0,0,1.9488763428057905,60.96504688524666,2.0851093741276223)" fill="url(#SvgjsLinearGradient2120)"><path d="M18.438 12.050999999999998 l0 19.98 l-11.934 -19.98 l-4.4336 0 l0 27.949 l4.2383 0 l0 -19.98 l11.953 19.98 l4.4336 0 l0 -27.949 l-4.2578 0 z M31.386725 12.09 l-4.2383 0 l0 27.91 l4.2383 0 l0 -27.91 z M35.898475 12.050999999999998 l0 27.949 l5.1953 0 l16.465 -27.949 l-4.9219 0 l-12.48 21.191 l0 -21.191 l-4.2578 0 z M62.7344 18.945 c-1.9531 1.9531 -2.9297 4.31 -2.9297 7.0703 s0.97656 5.1172 2.9297 7.0703 s4.31 2.9297 7.0703 2.9297 s5.1172 -0.97656 7.0703 -2.9297 s2.9297 -4.31 2.9297 -7.0703 s-0.97656 -5.1172 -2.9297 -7.0703 s-4.31 -2.9297 -7.0703 -2.9297 s-5.1172 0.97656 -7.0703 2.9297 z M59.7266 36.0937 c-2.7865 -2.7865 -4.1797 -6.1459 -4.1797 -10.078 s1.3932 -7.2916 4.1797 -10.078 s6.1459 -4.1797 10.078 -4.1797 s7.2916 1.3932 10.078 4.1797 s4.1797 6.1459 4.1797 10.078 s-1.3932 7.2916 -4.1797 10.078 s-6.1459 4.1797 -10.078 4.1797 s-7.2916 -1.3932 -10.078 -4.1797 z M94.7852 40.25391 c-1.849 -0.078125 -3.5547 -0.57291 -5.1172 -1.4844 c-1.7708 -1.0287 -2.9752 -2.4088 -3.6133 -4.1406 l3.9844 -1.4648 c0.32553 0.85938 0.99609 1.556 2.0117 2.0898 c0.89844 0.45572 1.875 0.70963 2.9297 0.76172 c1.6276 0.065098 2.9752 -0.33203 4.043 -1.1914 c0.89844 -0.72916 1.3737 -1.5625 1.4258 -2.5 c0.078125 -1.7838 -1.7904 -3.2096 -5.6055 -4.2773 c-5.9766 -1.6797 -8.8736 -4.5248 -8.6914 -8.5352 c0.11719 -2.8125 1.3216 -4.9154 3.6133 -6.3086 c1.7448 -1.0677 3.8412 -1.543 6.2891 -1.4258 c2.9688 0.13021 5.3516 1.1654 7.1484 3.1055 l-3.1055 2.8906 c-1.0156 -1.0938 -2.4283 -1.6797 -4.2383 -1.7578 c-1.276 -0.05209 -2.3633 0.11066 -3.2617 0.48826 c-1.4063 0.59896 -2.142 1.6667 -2.207 3.2031 c-0.078125 1.7578 1.7904 3.1705 5.6055 4.2383 c3.4375 0.96354 5.8725 2.3828 7.3047 4.2578 c0.98959 1.3021 1.4518 2.7408 1.3867 4.3164 c-0.10416 2.2135 -1.1068 4.0885 -3.0078 5.625 c-1.7708 1.4193 -3.8932 2.1289 -6.3672 2.1289 c-0.18229 0 -0.35807 -0.0065041 -0.52734 -0.019531 z"></path></g></svg>
